<?xml version="1.0" encoding="utf-8"?>
<svg version="1.1" id="Layer_1"
xmlns="http://www.w3.org/2000/svg"
xmlns:xlink="http://www.w3.org/1999/xlink"
width="1000px" height="320px"
xml:space="preserve">
<g id="PathID_1" transform="matrix(1.43524, 0, 0, 1.47172, 376.55, 161.6)" opacity="1">
<path style="fill:#000000;fill-opacity:1" d="M9.25 -13Q8.9 -12.95 9.2 -12.9L9.25 -12.9L9.25 0L2.8 0L2.8 -37.1L32.9 -37.1Q34.35 -37.1 35.65 -36.5Q36.9 -35.95 37.9 -35Q38.9 -34.05 39.4 -32.75Q39.95 -31.5 39.95 -30.05L39.95 -19.9Q39.95 -18.45 39.4 -17.2Q38.9 -15.9 37.9 -14.95Q36.9 -14 35.65 -13.45Q34.4 -12.9 32.9 -12.9L9.8 -12.9L9.25 -12.9L9.25 -13M33.5 -30.05Q33.5 -30.3 33.35 -30.5Q33.15 -30.65 32.9 -30.65L9.8 -30.65Q9.6 -30.65 9.4 -30.5Q9.25 -30.3 9.25 -30.05L9.25 -19.9Q9.25 -19.65 9.4 -19.5Q9.6 -19.3 9.8 -19.3L32.9 -19.3Q33.15 -19.3 33.35 -19.5Q33.5 -19.7 33.5 -19.9L33.5 -30.05" />
</g>
<g id="PathID_2" transform="matrix(1.43524, 0, 0, 1.47172, 376.55, 161.6)" opacity="1">
</g>
<g id="PathID_3" transform="matrix(1.43524, 0, 0, 1.47172, 434.6, 161.6)" opacity="1">
<path style="fill:#000000;fill-opacity:1" d="M26.2 -30.1Q27.65 -30.1 28.95 -29.55Q30.2 -29 31.2 -28.05Q32.15 -27.1 32.7 -25.8Q33.25 -24.5 33.25 -23.1L33.25 0L9.6 0Q8.15 0 6.85 -0.55Q5.6 -1.05 4.65 -2.05Q3.65 -3 3.15 -4.25Q2.6 -5.55 2.6 -7L2.6 -18.25L26.8 -18.25L26.8 -23.1Q26.8 -23.3 26.6 -23.5Q26.4 -23.7 26.2 -23.7L2.6 -23.7L2.6 -30.1L26.2 -30.1M26.8 -11.85L9.05 -11.85L9.05 -7Q9.05 -6.75 9.2 -6.6Q9.4 -6.4 9.6 -6.4L26.8 -6.4L26.8 -11.85" />
</g>
<g id="PathID_4" transform="matrix(1.43524, 0, 0, 1.47172, 434.6, 161.6)" opacity="1">
</g>
<g id="PathID_5" transform="matrix(1.43524, 0, 0, 1.47172, 485.6, 161.6)" opacity="1">
<path style="fill:#000000;fill-opacity:1" d="M33.05 -21.5L26.6 -21.5L26.6 -23.1Q26.6 -23.3 26.4 -23.5Q26.2 -23.7 26 -23.7L9.4 -23.7Q9.2 -23.7 9 -23.5Q8.85 -23.35 8.85 -23.1L8.85 -18.85Q8.85 -18.6 9 -18.45Q9.2 -18.25 9.4 -18.25L26 -18.25Q27.45 -18.25 28.75 -17.7Q30 -17.15 31 -16.2Q31.95 -15.25 32.5 -13.95Q33.05 -12.65 33.05 -11.25L33.05 -7Q33.05 -5.55 32.5 -4.3Q31.95 -3 31 -2.05Q30 -1.1 28.75 -0.55Q27.45 0 26 0L9.4 0Q7.95 0 6.65 -0.55Q5.4 -1.05 4.45 -2.05Q3.45 -3 2.95 -4.25Q2.4 -5.55 2.4 -7L2.4 -8.6L8.85 -8.6L8.85 -7Q8.85 -6.75 9 -6.6Q9.2 -6.4 9.4 -6.4L26 -6.4Q26.2 -6.4 26.4 -6.6Q26.6 -6.8 26.6 -7L26.6 -11.25Q26.6 -11.45 26.4 -11.65Q26.2 -11.85 26 -11.85L9.4 -11.85Q7.95 -11.85 6.65 -12.4Q5.4 -12.9 4.45 -13.9Q3.45 -14.85 2.95 -16.1Q2.4 -17.4 2.4 -18.85L2.4 -23.1Q2.4 -24.55 2.95 -25.8Q3.45 -27.1 4.45 -28.05Q5.4 -29 6.7 -29.55Q7.95 -30.1 9.4 -30.1L26 -30.1Q27.45 -30.1 28.75 -29.55Q30 -29 31 -28.05Q31.95 -27.1 32.5 -25.8Q33.05 -24.55 33.05 -23.1L33.05 -21.5" />
</g>
<g id="PathID_6" transform="matrix(1.43524, 0, 0, 1.47172, 485.6, 161.6)" opacity="1">
</g>
<g id="PathID_7" transform="matrix(1.43524, 0, 0, 1.47172, 536, 161.6)" opacity="1">
<path style="fill:#000000;fill-opacity:1" d="M33.05 -21.5L26.6 -21.5L26.6 -23.1Q26.6 -23.3 26.4 -23.5Q26.2 -23.7 26 -23.7L9.4 -23.7Q9.2 -23.7 9 -23.5Q8.85 -23.35 8.85 -23.1L8.85 -18.85Q8.85 -18.6 9 -18.45Q9.2 -18.25 9.4 -18.25L26 -18.25Q27.45 -18.25 28.75 -17.7Q30 -17.15 31 -16.2Q31.95 -15.25 32.5 -13.95Q33.05 -12.65 33.05 -11.25L33.05 -7Q33.05 -5.55 32.5 -4.3Q31.95 -3 31 -2.05Q30 -1.1 28.75 -0.55Q27.45 0 26 0L9.4 0Q7.95 0 6.65 -0.55Q5.4 -1.05 4.45 -2.05Q3.45 -3 2.95 -4.25Q2.4 -5.55 2.4 -7L2.4 -8.6L8.85 -8.6L8.85 -7Q8.85 -6.75 9 -6.6Q9.2 -6.4 9.4 -6.4L26 -6.4Q26.2 -6.4 26.4 -6.6Q26.6 -6.8 26.6 -7L26.6 -11.25Q26.6 -11.45 26.4 -11.65Q26.2 -11.85 26 -11.85L9.4 -11.85Q7.95 -11.85 6.65 -12.4Q5.4 -12.9 4.45 -13.9Q3.45 -14.85 2.95 -16.1Q2.4 -17.4 2.4 -18.85L2.4 -23.1Q2.4 -24.55 2.95 -25.8Q3.45 -27.1 4.45 -28.05Q5.4 -29 6.7 -29.55Q7.95 -30.1 9.4 -30.1L26 -30.1Q27.45 -30.1 28.75 -29.55Q30 -29 31 -28.05Q31.95 -27.1 32.5 -25.8Q33.05 -24.55 33.05 -23.1L33.05 -21.5" />
</g>
<g id="PathID_8" transform="matrix(1.43524, 0, 0, 1.47172, 536, 161.6)" opacity="1">
</g>
<g id="PathID_9" transform="matrix(1.43524, 0, 0, 1.47172, 607.7, 161.6)" opacity="1">
<path style="fill:#000000;fill-opacity:1" d="M9.25 -13Q8.9 -12.95 9.2 -12.9L9.25 -12.9L9.25 0L2.8 0L2.8 -37.1L32.9 -37.1Q34.35 -37.1 35.65 -36.5Q36.9 -35.95 37.9 -35Q38.9 -34.05 39.4 -32.75Q39.95 -31.5 39.95 -30.05L39.95 -19.9Q39.95 -18.45 39.4 -17.2Q38.9 -15.9 37.9 -14.95Q36.9 -14 35.65 -13.45Q34.4 -12.9 32.9 -12.9L9.8 -12.9L9.25 -12.9L9.25 -13M33.5 -30.05Q33.5 -30.3 33.35 -30.5Q33.15 -30.65 32.9 -30.65L9.8 -30.65Q9.6 -30.65 9.4 -30.5Q9.25 -30.3 9.25 -30.05L9.25 -19.9Q9.25 -19.65 9.4 -19.5Q9.6 -19.3 9.8 -19.3L32.9 -19.3Q33.15 -19.3 33.35 -19.5Q33.5 -19.7 33.5 -19.9L33.5 -30.05" />
</g>
<g id="PathID_10" transform="matrix(1.43524, 0, 0, 1.47172, 607.7, 161.6)" opacity="1">
</g>
<g id="PathID_11" transform="matrix(1.43524, 0, 0, 1.47172, 665.75, 161.6)" opacity="1">
<path style="fill:#000000;fill-opacity:1" d="M26.3 -30.1Q27.75 -30.1 29 -29.55Q30.3 -29 31.25 -28.05Q32.2 -27.05 32.75 -25.8Q33.35 -24.55 33.35 -23.1L33.35 0L26.9 0L26.9 -23.1Q26.9 -23.3 26.7 -23.5Q26.5 -23.7 26.3 -23.7L9.7 -23.7Q9.5 -23.7 9.3 -23.5Q9.15 -23.35 9.15 -23.1L9.15 0L2.7 0L2.7 -39.65L9.15 -39.65L9.15 -30.1L26.3 -30.1" />
</g>
<g id="PathID_12" transform="matrix(1.43524, 0, 0, 1.47172, 665.75, 161.6)" opacity="1">
</g>
<g id="PathID_13" transform="matrix(1.43524, 0, 0, 1.47172, 714.85, 161.6)" opacity="1">
<path style="fill:#000000;fill-opacity:1" d="M26.15 -30.1Q27.6 -30.1 28.9 -29.55Q30.15 -29 31.15 -28.05Q32.1 -27.1 32.65 -25.8Q33.2 -24.5 33.2 -23.1L33.2 -7Q33.2 -5.55 32.65 -4.3Q32.1 -3 31.15 -2.05Q30.15 -1.1 28.9 -0.55Q27.6 0 26.15 0L9.55 0Q8.1 0 6.8 -0.55Q5.55 -1.05 4.6 -2.05Q3.6 -3 3.1 -4.25Q2.55 -5.55 2.55 -7L2.55 -23.1Q2.55 -24.55 3.1 -25.8Q3.6 -27.1 4.6 -28.05Q5.55 -29 6.85 -29.55Q8.1 -30.1 9.55 -30.1L26.15 -30.1M9.55 -23.7Q9.35 -23.7 9.15 -23.5Q9 -23.35 9 -23.1L9 -7Q9 -6.75 9.15 -6.6Q9.35 -6.4 9.55 -6.4L26.15 -6.4Q26.35 -6.4 26.55 -6.6Q26.75 -6.8 26.75 -7L26.75 -23.1Q26.75 -23.3 26.55 -23.5Q26.35 -23.7 26.15 -23.7L9.55 -23.7" />
</g>
<g id="PathID_14" transform="matrix(1.43524, 0, 0, 1.47172, 714.85, 161.6)" opacity="1">
</g>
<g id="PathID_15" transform="matrix(1.43524, 0, 0, 1.47172, 765.7, 161.6)" opacity="1">
<path style="fill:#000000;fill-opacity:1" d="M9.1 -23.7L9.1 -7Q9.1 -6.75 9.25 -6.6Q9.45 -6.4 9.65 -6.4L21.05 -6.4L21.05 0L9.65 0Q8.2 0 6.95 -0.55Q5.65 -1.05 4.7 -2.05Q3.7 -3 3.2 -4.25Q2.65 -5.55 2.65 -7L2.65 -23.05L2.65 -39.65L9.1 -39.65L9.1 -30.1L21.05 -30.1L21.05 -23.7L9.1 -23.7" />
</g>
<g id="PathID_16" transform="matrix(1.43524, 0, 0, 1.47172, 765.7, 161.6)" opacity="1">
</g>
<g id="PathID_17" transform="matrix(1.43524, 0, 0, 1.47172, 795.85, 161.6)" opacity="1">
<path style="fill:#000000;fill-opacity:1" d="M26.15 -30.1Q27.6 -30.1 28.9 -29.55Q30.15 -29 31.15 -28.05Q32.1 -27.1 32.65 -25.8Q33.2 -24.5 33.2 -23.1L33.2 -7Q33.2 -5.55 32.65 -4.3Q32.1 -3 31.15 -2.05Q30.15 -1.1 28.9 -0.55Q27.6 0 26.15 0L9.55 0Q8.1 0 6.8 -0.55Q5.55 -1.05 4.6 -2.05Q3.6 -3 3.1 -4.25Q2.55 -5.55 2.55 -7L2.55 -23.1Q2.55 -24.55 3.1 -25.8Q3.6 -27.1 4.6 -28.05Q5.55 -29 6.85 -29.55Q8.1 -30.1 9.55 -30.1L26.15 -30.1M9.55 -23.7Q9.35 -23.7 9.15 -23.5Q9 -23.35 9 -23.1L9 -7Q9 -6.75 9.15 -6.6Q9.35 -6.4 9.55 -6.4L26.15 -6.4Q26.35 -6.4 26.55 -6.6Q26.75 -6.8 26.75 -7L26.75 -23.1Q26.75 -23.3 26.55 -23.5Q26.35 -23.7 26.15 -23.7L9.55 -23.7" />
</g>
<g id="PathID_18" transform="matrix(1.43524, 0, 0, 1.47172, 795.85, 161.6)" opacity="1">
</g>
<g id="PathID_19" transform="matrix(2.13362, 0, 0, 2.13362, 139.8, 158.55)" opacity="1">
<linearGradient
id="LinearGradID_1" gradientUnits="userSpaceOnUse" gradientTransform="matrix(-0.00111389, -0.00473022, -0.00299072, 0.00175476, -0.2, 1.95)" spreadMethod ="pad" x1="-819.2" y1="0" x2="819.2" y2="0" >
<stop  offset="0" style="stop-color:#F18B1C;stop-opacity:1" />
<stop  offset="1" style="stop-color:#CF211C;stop-opacity:1" />
</linearGradient>
<path style="fill:url(#LinearGradID_1) " d="M-0.95 -2.9Q2.1 -1.35 4.7 2.95L-4.7 2.95Q-3.8 -0.8 -2.25 -2.15Q-1.5 -2.9 -0.95 -2.9" />
</g>
<g id="PathID_20" transform="matrix(2.13362, 0, 0, 2.13362, 139.8, 158.55)" opacity="1">
</g>
<g id="PathID_21" transform="matrix(2.13362, 0, 0, 2.13362, 153.95, 161.65)" opacity="1">
<path style="fill:#F4E82A;fill-opacity:1" d="M6 17.25Q4.5 1.4 -1.8 -9.55Q-3.8 -12.95 -6 -15.4L-7.85 -17.2L7.9 -17.2Q5.75 -1.9 6 17.25" />
</g>
<g id="PathID_22" transform="matrix(2.13362, 0, 0, 2.13362, 153.95, 161.65)" opacity="1">
</g>
<g id="PathID_23" transform="matrix(2.13362, 0, 0, 2.13362, 304, 163.25)" opacity="1">
<path style="fill:#F4E82A;fill-opacity:1" d="M0.35 -16.05Q-8.45 1.1 -9.1 27.9L-9.15 27.9Q-8.45 -5.75 -0.55 -27.9L9.15 -27.9L6.45 -25.15Q3.15 -21.45 0.35 -16.05" />
</g>
<g id="PathID_24" transform="matrix(2.13362, 0, 0, 2.13362, 304, 163.25)" opacity="1">
</g>
<g id="PathID_25" transform="matrix(2.13362, 0, 0, 2.13362, 235.3, 163.2)" opacity="1">
<linearGradient
id="LinearGradID_2" gradientUnits="userSpaceOnUse" gradientTransform="matrix(0, -0.0328217, -0.0207825, 0, 0, -5.45)" spreadMethod ="pad" x1="-819.2" y1="0" x2="819.2" y2="0" >
<stop  offset="0" style="stop-color:#F4E82A;stop-opacity:1" />
<stop  offset="1" style="stop-color:#C1711A;stop-opacity:1" />
</linearGradient>
<path style="fill:url(#LinearGradID_2) " d="M-21.4 -27.9L31.75 -27.9Q23.8 -5.75 23.1 27.9L-31.7 27.9Q-31.35 3.4 -26.35 -14.75Q-23.85 -23.8 -21.4 -27.9" />
</g>
<g id="PathID_26" transform="matrix(2.13362, 0, 0, 2.13362, 235.3, 163.2)" opacity="1">
</g>
<g id="PathID_27" transform="matrix(2.13362, 0, 0, 2.13362, 249.1, 178.2)" opacity="1">
<radialGradient
id="RadialGradID_3" gradientUnits="userSpaceOnUse" gradientTransform="matrix(0.0379944, 0, 0, -0.0599823, -12.9, 31.25)" spreadMethod ="pad" cx="0" cy="0" r="819.2" fx="0" fy="0" >
<stop  offset="0"  style="stop-color:#F5E52A;stop-opacity:1" />
<stop  offset="1"  style="stop-color:#D82721;stop-opacity:1" />
</radialGradient>
<path style="fill:url(#RadialGradID_3) " d="M28.7 -15.05Q18.75 -4.2 16.85 20.95L-38.2 20.95Q-36.7 -4.65 -26.6 -15.35Q-21.5 -20.65 -16.75 -20.9L38.25 -20.8Q33.65 -20.45 28.7 -15.05" />
</g>
<g id="PathID_28" transform="matrix(2.13362, 0, 0, 2.13362, 249.1, 178.2)" opacity="1">
</g>
<g id="PathID_29" transform="matrix(0.797184, 0, 0, 0.797184, 486.6, 214.1)" opacity="1">
<path style="fill:#404040;fill-opacity:1" d="M3.8 -35.45L16.5 -35.45Q21.95 -35.45 24.9 -32.8Q27.9 -30.2 27.9 -26.05Q27.9 -20.1 21.05 -18.2Q24.5 -17.65 26.6 -15.1Q28.7 -12.6 28.7 -9.35Q28.7 -5.3 25.55 -2.65Q22.4 0 17.15 0L3.8 0L3.8 -35.45M8.45 -31.7L8.45 -20.05L16.3 -20.05Q19.55 -20.05 21.35 -21.6Q23.15 -23.15 23.15 -25.85Q23.15 -28.55 21.35 -30.1Q19.55 -31.7 16.3 -31.7L8.45 -31.7M8.45 -3.65L16.85 -3.65Q20.25 -3.65 22.15 -5.35Q24.1 -7.05 24.1 -10Q24.1 -12.95 22 -14.6Q19.95 -16.3 16.5 -16.3L8.45 -16.3L8.45 -3.65" />
</g>
<g id="PathID_30" transform="matrix(0.797184, 0, 0, 0.797184, 486.6, 214.1)" opacity="1">
</g>
<g id="PathID_31" transform="matrix(0.797184, 0, 0, 0.797184, 525.2, 214.1)" opacity="1">
<path style="fill:#404040;fill-opacity:1" d="M11.7 -0.45L0.6 -28.1L5.7 -28.1L14.3 -5.35L23.05 -28.1L27.9 -28.1L10.95 13.2L6.1 13.2L11.7 -0.45" />
</g>
<g id="PathID_32" transform="matrix(0.797184, 0, 0, 0.797184, 525.2, 214.1)" opacity="1">
</g>
<g id="PathID_33" transform="matrix(0.797184, 0, 0, 0.797184, 587.3, 214.1)" opacity="1">
<path style="fill:#404040;fill-opacity:1" d="M20.05 0.35Q12.4 0.35 7.15 -4.75Q1.95 -9.9 1.95 -17.75Q1.95 -25.65 7.15 -30.7Q12.4 -35.8 20.05 -35.8Q25.6 -35.8 29.9 -33.2Q34.25 -30.6 36.3 -25.7L30.65 -25.7Q27.45 -31.65 20.05 -31.65Q14.25 -31.65 10.5 -27.85Q6.75 -24.05 6.75 -17.75Q6.75 -11.45 10.5 -7.6Q14.25 -3.75 20.05 -3.75Q23.6 -3.75 26.35 -5.3Q29.1 -6.9 30.65 -9.8L36.3 -9.8Q34.25 -4.9 29.9 -2.25Q25.6 0.35 20.05 0.35" />
</g>
<g id="PathID_34" transform="matrix(0.797184, 0, 0, 0.797184, 587.3, 214.1)" opacity="1">
</g>
<g id="PathID_35" transform="matrix(0.797184, 0, 0, 0.797184, 632.6, 214.1)" opacity="1">
<path style="fill:#404040;fill-opacity:1" d="M15.8 -3.35Q19.75 -3.35 22.6 -6.2Q25.5 -9.05 25.5 -14.05Q25.5 -19.05 22.75 -21.85Q20 -24.7 16 -24.7Q12.05 -24.7 9.4 -21.85Q6.75 -19.05 6.75 -14Q6.75 -9 9.3 -6.15Q11.85 -3.35 15.8 -3.35M5.85 -3.5Q1.95 -7.5 1.95 -14Q1.95 -20.5 6 -24.5Q10.05 -28.55 16.15 -28.55Q22.25 -28.55 26.3 -24.5Q30.35 -20.5 30.35 -14Q30.35 -7.55 26.1 -3.5Q21.9 0.5 15.8 0.5Q9.7 0.5 5.85 -3.5" />
</g>
<g id="PathID_36" transform="matrix(0.797184, 0, 0, 0.797184, 632.6, 214.1)" opacity="1">
</g>
<g id="PathID_37" transform="matrix(0.797184, 0, 0, 0.797184, 672, 214.1)" opacity="1">
<path style="fill:#404040;fill-opacity:1" d="M22.95 -6.4Q25.75 -9.25 25.75 -14Q25.75 -18.75 22.95 -21.6Q20.15 -24.5 16.2 -24.5Q12.3 -24.5 9.5 -21.7Q6.75 -18.95 6.75 -14.2Q6.75 -9.45 9.55 -6.45Q12.35 -3.5 16.25 -3.5Q20.15 -3.5 22.95 -6.4M15.4 0.5Q9.65 0.5 5.8 -3.6Q1.95 -7.75 1.95 -14.15Q1.95 -20.6 5.75 -24.55Q9.6 -28.55 15.4 -28.55Q18.95 -28.55 21.65 -26.85Q24.35 -25.15 25.75 -22.45L25.75 -37.85L30.45 -37.85L30.45 0L25.75 0L25.75 -5.7Q24.35 -2.95 21.65 -1.2Q18.95 0.5 15.4 0.5" />
</g>
<g id="PathID_38" transform="matrix(0.797184, 0, 0, 0.797184, 672, 214.1)" opacity="1">
</g>
<g id="PathID_39" transform="matrix(0.797184, 0, 0, 0.797184, 712.95, 214.1)" opacity="1">
<path style="fill:#404040;fill-opacity:1" d="M15.6 0.5Q9.55 0.5 5.75 -3.5Q1.95 -7.5 1.95 -14.05Q1.95 -20.6 5.8 -24.55Q9.65 -28.55 15.75 -28.55Q21.9 -28.55 25.6 -24.75Q29.3 -21 29.3 -15.2Q29.3 -13.7 29.1 -12.4L6.75 -12.4Q6.95 -8.2 9.35 -5.75Q11.8 -3.35 15.6 -3.35Q18.45 -3.35 20.4 -4.6Q22.4 -5.9 23.3 -8L28.35 -8Q27 -4.35 23.75 -1.9Q20.5 0.5 15.6 0.5M24.45 -15.8Q24.4 -19.85 21.9 -22.25Q19.4 -24.7 15.65 -24.7Q11.95 -24.7 9.5 -22.3Q7.05 -19.95 6.8 -15.8L24.45 -15.8" />
</g>
<g id="PathID_40" transform="matrix(0.797184, 0, 0, 0.797184, 712.95, 214.1)" opacity="1">
</g>
<g id="PathID_41" transform="matrix(0.797184, 0, 0, 0.797184, 751.45, 214.1)" opacity="1">
<path style="fill:#404040;fill-opacity:1" d="M15.4 -28.1L15.4 -24.3L9.5 -24.3L9.5 0L4.8 0L4.8 -24.3L1.15 -24.3L1.15 -28.1L4.8 -28.1L4.8 -30.45Q4.8 -35.05 7.25 -37.15Q9.7 -39.25 15 -39.25L15 -35.45Q11.9 -35.45 10.7 -34.3Q9.5 -33.15 9.5 -30.45L9.5 -28.1L15.4 -28.1" />
</g>
<g id="PathID_42" transform="matrix(0.797184, 0, 0, 0.797184, 751.45, 214.1)" opacity="1">
</g>
<g id="PathID_43" transform="matrix(0.797184, 0, 0, 0.797184, 778.5, 214.1)" opacity="1">
<path style="fill:#404040;fill-opacity:1" d="M11.7 -0.45L0.6 -28.1L5.7 -28.1L14.3 -5.35L23.05 -28.1L27.9 -28.1L10.95 13.2L6.1 13.2L11.7 -0.45" />
</g>
<g id="PathID_44" transform="matrix(0.797184, 0, 0, 0.797184, 778.5, 214.1)" opacity="1">
</g>
<g id="PathID_45" transform="matrix(0.797184, 0, 0, 0.797184, 814.8, 214.1)" opacity="1">
<path style="fill:#404040;fill-opacity:1" d="M8.45 -28.1L8.45 -23.55Q11.35 -28.55 17.65 -28.55Q22.3 -28.55 25.4 -25.45Q28.55 -22.35 28.55 -16.6L28.55 0L23.95 0L23.95 -15.85Q23.95 -20.1 21.9 -22.3Q19.85 -24.5 16.2 -24.5Q12.6 -24.5 10.5 -22.3Q8.45 -20.1 8.45 -15.85L8.45 0L3.8 0L3.8 -28.1L8.45 -28.1" />
</g>
<g id="PathID_46" transform="matrix(0.797184, 0, 0, 0.797184, 814.8, 214.1)" opacity="1">
</g>
</svg>
